<svg xmlns="http://www.w3.org/2000/svg" xmlns:xlink="http://www.w3.org/1999/xlink" viewBox="0 0 450 468" width="150" height="156"><defs><style>.a{fill:url(#a);}.b{fill:url(#b);}.c{fill:url(#c);}.d{fill:url(#d);}.e{fill:url(#e);}.f{fill:url(#f);}.g{fill:#fff;}</style><linearGradient id="a" x1="122" y1="195" x2="148" y2="169" gradientUnits="userSpaceOnUse"><stop offset="0" stop-color="#e00043"/><stop offset="1" stop-color="#ff4066"/></linearGradient><linearGradient id="b" x1="192.25" y1="194.25" x2="257.75" y2="128.75" xlink:href="#a"/><linearGradient id="c" x1="302" x2="328" y2="169" xlink:href="#a"/><linearGradient id="d" x1="124.75" y1="249.75" x2="145.25" y2="229.25" gradientUnits="userSpaceOnUse"><stop offset="0" stop-color="#0069e9"/><stop offset="1" stop-color="#00eaff"/></linearGradient><linearGradient id="e" x1="304.75" y1="249.75" x2="325.25" y2="229.25" xlink:href="#d"/><linearGradient id="f" x1="121" y1="353" x2="449" y2="25" gradientUnits="userSpaceOnUse"><stop offset="0" stop-color="#fd0"/><stop offset="1" stop-color="#ff6200"/></linearGradient></defs><title>oneko-new3</title><polygon class="a" points="120 182 135 208 150 182 135 156 120 182"/><polygon class="b" points="225 156 195 156 165 156 180 182 210 182 240 182 270 182 285 156 255 156 225 156"/><polygon class="c" points="315 156 300 182 315 208 330 182 315 156"/><polygon class="d" points="135 260 150 234 120 234 135 260"/><polygon class="e" points="300 234 315 260 330 234 300 234"/><path class="f" d="M465,104l15-26L465,52,450,26,435,52,420,78l-15,26-15,26-15,26,15,26-15,26h60l-15,26-15,26H375l-15,26-15-26-15-26,15-26h30l-15-26,15-26-15-26H210l-15,26,15,26-15,26h30l15,26-15,26-15,26-15-26H165l-15-26-15-26h60l-15-26,15-26-15-26-15-26L150,78,135,52,120,26,105,52,90,78l15,26L90,130l15,26L90,182h30l-15,26,15,26-15,26,15,26,15,26,15,26,15,26,15,26,15,26,15,26H360l15-26,15-26,15-26,15-26,15-26,15-26,15-26-15-26,15-26-15-26h30l-15-26,15-26ZM285,364l-15-26-15-26h60l-15,26-15,26,15,26H270ZM225,156H345l-15,26H240Z" transform="translate(-60)"/><path d="M495,104l15-26L495,52,480,26,465,0H435L420,26,405,52,390,78l-15,26H195L180,78,165,52,150,26,135,0H105L90,26,75,52,60,78l15,26L60,130l15,26L60,182l15,26,15,26L75,260l15,26,15,26,15,26,15,26,15,26,15,26,15,26,15,26H375l15-26,15-26,15-26,15-26,15-26,15-26,15-26,15-26-15-26,15-26,15-26-15-26,15-26Zm-30,52,15,26H450l15,26-15,26,15,26-15,26-15,26-15,26-15,26-15,26-15,26-15,26H210l-15-26-15-26-15-26-15-26-15-26-15-26-15-26,15-26-15-26,15-26H90l15-26L90,130l15-26L90,78l15-26,15-26,15,26,15,26,15,26,15,26,15,26,15-26H360l15,26,15-26,15-26,15-26,15-26,15-26,15,26,15,26-15,26,15,26Z" transform="translate(-60)"/><polygon points="135 208 105 208 75 208 90 234 120 234 150 234 165 260 180 234 165 208 135 208"/><polygon points="315 208 285 208 270 234 285 260 300 234 330 234 360 234 375 208 345 208 315 208"/><polygon points="195 312 210 338 225 364 240 338 255 312 225 312 195 312"/><polygon points="240 390 225 364 210 390 240 390"/><polygon class="g" points="315 260 300 234 285 260 300 286 315 260"/><polygon class="g" points="165 260 150 234 135 260 150 286 165 260"/><polygon class="g" points="360 234 330 234 315 260 345 260 360 234"/><polygon class="g" points="135 260 120 234 90 234 105 260 135 260"/></svg>