<svg xmlns="http://www.w3.org/2000/svg" viewBox="0 0 722.85 701.97"><defs><style>.a{fill:#60c54e;}.b{fill:#fff;}</style></defs><title>o-neko-logo</title><path class="a" d="M359,10.06a47,47,0,0,0-17.91,4.53L96.74,131.34a46.42,46.42,0,0,0-25.28,31.44L11.17,425a46,46,0,0,0,6.34,35.53q1.24,1.91,2.66,3.69L189.3,674.53A46.87,46.87,0,0,0,225.83,692L497,691.9a46.87,46.87,0,0,0,36.53-17.41L702.64,464.19a46.05,46.05,0,0,0,9-39.22L651.3,162.72A46.42,46.42,0,0,0,626,131.28L381.64,14.59A47.05,47.05,0,0,0,359,10.06Z"/><path class="b" d="M353.75,383c-22-5.25-46.54,7.35-51.5,17.6-6,12.4,51.25,119.15,59,117.65S375.75,388.25,353.75,383ZM327.5,420.25c2.5-5,10.11-6.45,15-5.25,11,2.7,22.31,92.89,16.5,94S322.42,430.41,327.5,420.25Z"/><path class="b" d="M347.5,516.5c-4.85-11.95-51.09-107.72-59.59-112.86-10.16-6.14-53.66,47.56-8.41,74.36S348.81,519.72,347.5,516.5Zm-5.5-7.75c-3,0-40.19-29.75-45.5-38.5s0-16.75,10.25-9S345,508.75,342,508.75Z"/><path class="b" d="M372.5,479.5c2.75-2.25,22.75-75.5,20.5-82.5s-14-5-17,2.25S369.75,481.75,372.5,479.5Z"/><path class="b" d="M422.75,387.5c-8.75-5.73-16-4-20,2.5s-38.18,123.87-34.09,126.93S425,430.25,431,412.75,431.5,393.23,422.75,387.5ZM375.5,502c-1.75-2.25,17.68-53.25,20-55s5.25-1.75,5.25,4.25S377.25,504.25,375.5,502Z"/><path class="b" d="M470,444c-.54-13.68-4.5-26.25-12-32.5s-15.21-4.34-22,6.75S374,518.77,380.5,517c4.06-1.1,43.45-17.22,68.25-37.46C463.63,467.41,470.54,457.68,470,444Zm-36.48,35.55c-4.48,3.3-43,30.2-45.52,29s40.5-60.75,48-67.25,17.5-.75,18.3,8.77S438,476.25,433.52,479.55Z"/><path class="b" d="M416.75,370.5c6,17,29.15,24.87,36.82,16.19S496.25,282.75,492,279,410.75,353.5,416.75,370.5Zm40.1-24.24c-2.46,3.49-10,5.76-11.32-.25s42.48-61.8,43-59S459.32,342.77,456.85,346.26Z"/><path class="b" d="M497.75,286c-4.25-.06-40.93,102.63-39.5,114.6s50.92,22.15,51-26.35S502,286.06,497.75,286Zm.75,18.75c2.1,2.15,3.81,43.05,1.26,53s-12,10.7-13.6-2S496.4,302.6,498.5,304.75Z"/><path class="b" d="M467.25,292.7c-3.53-.4-76.81,49.06-80.25,55.56s13.08,11.9,20.37,9S470.78,293.09,467.25,292.7Z"/><path class="b" d="M371.46,295.75c-.63,9-.07,41.77,18.54,34.25s101.57-51.66,100.91-56.73-91.91-3.77-102.66-3S372.09,286.75,371.46,295.75Zm106.29-19.5c-.39,2.82-52.28,22.25-61.33,22S404.5,286,411.5,281,478.14,273.43,477.75,276.25Z"/><path class="b" d="M371.46,252.5c1.29,13.75,115.62,18.25,117.54,15.25s-40.5-43.5-77-49.75S370.17,238.75,371.46,252.5ZM427,247.25c-13.22-4.39,4.64-13.11,16-8.75s38.25,23.5,36,25.25S440.19,251.64,427,247.25Z"/><path class="b" d="M327,220c-27.67,5.33-84,44.67-80,47.64s81.29-4.89,105.67-6.64S354.67,214.67,327,220Zm-16.67,32.93c-8.52,3.41-52.67,13.41-55,10.07s37.19-20.14,48.1-20.14S318.86,249.52,310.33,252.93Z"/><path class="b" d="M350.67,271.33c-12.43-4.67-109.67.33-109.67,6s72.33,40.67,94.23,49.33,27.87-5,30.19-22.67S363.1,276,350.67,271.33Zm-36.67,29c-17.33-2-62.13-18.58-64.67-21.45s55.33-3.13,69.67,3.8S331.33,302.3,314,300.32Z"/><path class="b" d="M259.31,295c2.25-3.74,74,34.68,82,45.33s3.33,23.46-9,17.73S257.06,298.74,259.31,295Z"/><path class="b" d="M324.67,362c-8-7-85.67-79-88.67-76s39,94,47.67,101,18.14,3.25,28.33-3S332.67,369,324.67,362Zm-51.33-11c-11-11.65-33.67-52.39-29.33-54.32s41.33,35.68,45.33,45S284.33,362.63,273.33,351Z"/><path class="b" d="M272.67,384c-9-12.64-38.67-89.28-42-91.33s-6,84.64,0,103.3,18.68,18.33,30.33,14.53S281.67,396.67,272.67,384ZM239,372.33c-7-12.86-10.85-61.33-7-63.33s13.67,43,18.33,55.67S246,385.19,239,372.33Z"/></svg>
