<?xml version="1.0" standalone="no"?>
<!DOCTYPE svg PUBLIC "-//W3C//DTD SVG 20010904//EN"
 "http://www.w3.org/TR/2001/REC-SVG-20010904/DTD/svg10.dtd">
<svg version="1.0" xmlns="http://www.w3.org/2000/svg"
 width="936.000000pt" height="936.000000pt" viewBox="0 0 936.000000 936.000000"
 preserveAspectRatio="xMidYMid meet">
<metadata>
Created by potrace 1.11, written by Peter Selinger 2001-2013
</metadata>
<g transform="translate(0.000000,936.000000) scale(0.100000,-0.100000)"
fill="#000000" stroke="none">
<path d="M1053 9313 c-15 -26 -32 -56 -38 -65 -5 -10 -66 -116 -135 -235 -69
-118 -136 -234 -149 -257 -13 -22 -65 -113 -116 -201 -51 -88 -105 -182 -120
-210 -15 -27 -36 -61 -45 -75 -9 -14 -23 -38 -32 -55 -19 -40 -42 -79 -49 -85
-3 -3 -12 -18 -21 -35 -33 -64 -72 -130 -80 -133 -4 -2 -8 -10 -8 -17 0 -8
-11 -31 -25 -51 -14 -20 -25 -43 -25 -50 0 -8 -4 -14 -9 -14 -18 0 -21 -33 -6
-56 8 -13 16 -27 16 -31 1 -5 14 -27 30 -50 16 -23 29 -44 29 -47 0 -3 36 -66
80 -141 44 -75 80 -138 80 -141 0 -3 9 -17 20 -33 12 -15 21 -36 22 -47 1 -16
-173 -328 -202 -361 -5 -7 -10 -19 -10 -28 0 -8 -4 -15 -9 -15 -5 0 -14 -12
-20 -27 -6 -16 -20 -43 -31 -61 l-20 -33 56 -97 c31 -53 70 -122 87 -152 16
-30 36 -62 43 -71 8 -8 14 -18 14 -21 0 -4 19 -39 43 -80 58 -98 59 -101 33
-139 -12 -19 -30 -47 -38 -64 -34 -67 -113 -200 -120 -203 -4 -2 -8 -7 -8 -12
0 -4 -24 -50 -53 -101 -46 -81 -52 -98 -44 -122 5 -15 13 -27 18 -27 6 0 7 -4
4 -10 -3 -5 -3 -10 2 -10 4 0 13 -10 19 -23 26 -51 118 -212 125 -217 4 -3 12
-17 18 -30 6 -14 23 -46 38 -72 15 -25 51 -86 79 -135 82 -142 87 -152 166
-288 42 -71 85 -147 96 -168 l20 -38 -54 -96 c-30 -53 -54 -99 -54 -103 0 -5
-4 -10 -8 -12 -7 -3 -82 -130 -120 -203 -9 -16 -26 -45 -38 -63 -26 -38 -26
-41 33 -140 24 -41 43 -76 43 -80 0 -3 6 -13 14 -21 7 -9 28 -43 45 -76 18
-33 50 -89 72 -125 23 -36 41 -67 41 -70 1 -3 6 -14 13 -25 23 -37 103 -176
213 -370 28 -49 56 -95 62 -102 5 -7 10 -14 10 -17 0 -2 38 -70 85 -151 47
-80 96 -165 109 -189 46 -82 51 -91 57 -96 3 -3 13 -21 23 -40 23 -47 50 -94
56 -100 3 -3 11 -16 18 -30 15 -30 58 -106 80 -140 9 -14 25 -41 36 -60 10
-19 44 -78 75 -130 30 -52 55 -98 53 -102 -1 -5 2 -8 7 -8 5 0 13 -10 17 -22
4 -13 20 -42 35 -65 16 -23 29 -44 29 -46 0 -4 97 -175 140 -247 5 -8 35 -60
66 -115 31 -55 64 -108 72 -117 8 -10 12 -18 7 -18 -4 0 -3 -6 3 -12 10 -13
95 -157 164 -279 7 -13 15 -26 18 -29 3 -3 11 -16 18 -30 7 -14 24 -46 40 -72
26 -45 128 -223 174 -303 13 -22 26 -41 31 -43 4 -2 7 -8 7 -14 0 -6 16 -37
36 -69 19 -32 35 -62 35 -66 0 -4 6 -15 13 -23 7 -8 40 -61 72 -118 32 -57 66
-116 75 -130 9 -15 27 -48 41 -73 46 -83 53 -94 58 -99 3 -3 11 -16 18 -30 7
-14 22 -43 35 -65 l22 -40 1804 0 1803 0 55 95 c31 52 64 109 74 125 10 17 26
46 36 65 9 19 19 37 22 40 4 3 13 19 21 35 8 17 17 32 20 35 3 3 11 16 18 30
7 14 26 48 43 75 16 28 35 62 42 78 6 15 15 27 19 27 4 0 8 7 8 15 0 8 5 15
10 15 6 0 10 4 10 9 0 9 130 242 140 251 3 3 14 23 25 45 11 22 25 45 30 51 6
6 19 30 29 53 11 22 23 41 28 41 4 0 8 4 8 10 0 12 130 240 147 258 7 7 13 20
13 27 0 7 7 20 15 29 8 8 19 23 23 33 7 18 64 119 123 218 16 28 34 59 39 70
6 11 19 34 29 50 10 17 27 46 38 65 11 19 46 80 78 135 32 55 69 120 82 145
14 24 33 57 44 71 10 15 19 29 19 32 0 2 23 44 52 93 122 210 162 281 179 312
9 18 23 39 29 47 7 8 9 15 4 15 -5 0 -1 5 9 11 9 5 17 14 17 20 0 5 38 75 85
155 47 80 85 147 85 150 0 3 15 28 33 57 19 29 45 72 59 97 14 25 40 72 59
105 18 33 37 62 41 63 4 2 8 8 8 13 0 8 53 104 107 194 7 11 15 27 19 35 4 8
18 32 32 53 21 34 50 86 86 152 6 11 13 22 17 25 3 3 13 21 23 40 9 19 23 44
29 55 142 238 139 231 118 268 -70 125 -84 148 -92 153 -5 3 -7 10 -4 15 4 5
2 9 -3 9 -5 0 -12 8 -16 18 -3 9 -18 38 -33 64 -16 25 -52 87 -81 137 l-52 92
56 97 c31 53 68 117 82 142 13 25 44 78 68 117 24 40 44 75 44 79 0 3 8 18 19
32 10 15 29 47 43 72 35 63 68 120 89 155 10 17 24 41 32 55 7 14 48 85 91
158 l77 132 -56 98 c-31 53 -60 104 -65 112 -35 58 -60 104 -60 111 0 5 -4 9
-10 9 -5 0 -10 4 -10 9 0 5 -23 48 -51 96 l-51 86 26 39 c14 22 26 42 26 45 0
3 18 35 40 71 22 36 40 67 40 69 0 2 27 49 60 105 33 56 60 104 60 106 0 2 12
22 26 44 24 36 25 42 12 62 -9 13 -17 28 -19 33 -6 17 -97 169 -108 182 -6 7
-11 15 -11 18 0 4 -31 59 -68 123 -38 64 -71 124 -74 133 -4 10 4 32 18 52 13
20 24 39 24 42 0 4 9 20 21 36 11 16 17 29 12 29 -4 0 -3 4 3 8 6 4 28 39 49
77 22 39 43 72 47 73 4 2 6 8 2 13 -3 5 -1 9 4 9 6 0 15 12 21 28 6 15 22 45
36 67 58 94 57 89 7 179 -25 44 -50 84 -56 88 -7 5 -7 8 -1 8 7 0 7 3 0 8 -5
4 -18 23 -29 42 -10 19 -27 50 -37 68 -28 47 -56 97 -80 140 -12 20 -29 48
-39 62 -9 14 -21 35 -24 48 -4 12 -12 22 -17 22 -5 0 -8 3 -7 8 2 4 -30 62
-70 129 -39 67 -72 125 -72 129 0 4 -6 15 -14 23 -7 9 -27 41 -43 71 -16 30
-42 74 -56 97 -15 24 -27 44 -27 46 0 4 -191 335 -250 435 l-31 52 -298 0
-298 0 -27 -40 c-14 -22 -26 -42 -26 -45 0 -2 -18 -34 -40 -70 -22 -36 -40
-67 -40 -69 0 -9 -75 -131 -85 -138 -5 -4 -7 -8 -2 -8 4 0 -4 -17 -17 -37 -46
-72 -176 -303 -176 -313 0 -5 -4 -10 -8 -10 -5 0 -22 -27 -38 -60 -16 -33 -32
-60 -36 -60 -5 0 -8 -4 -8 -9 0 -8 -79 -150 -119 -211 -8 -14 -14 -28 -13 -32
1 -5 -3 -8 -8 -8 -6 0 -10 -4 -10 -9 0 -5 -19 -42 -43 -83 -24 -40 -55 -93
-69 -118 -117 -206 -152 -266 -157 -270 -3 -3 -15 -23 -27 -45 -35 -69 -69
-130 -75 -135 -3 -3 -24 -39 -47 -80 -23 -41 -56 -97 -72 -125 -17 -27 -35
-60 -40 -72 -11 -27 -42 -44 -58 -34 -7 4 -33 5 -57 1 -25 -4 -45 -3 -45 1 0
4 -14 4 -30 -1 -17 -5 -30 -5 -30 -2 0 9 -64 7 -79 -2 -5 -4 -12 -2 -16 4 -4
6 -12 7 -24 1 -9 -5 -23 -6 -29 -2 -7 4 -35 4 -62 1 -28 -4 -50 -3 -50 1 0 4
-13 4 -30 -1 -17 -5 -30 -5 -30 -2 0 9 -64 7 -79 -2 -5 -4 -12 -2 -16 4 -4 6
-12 7 -24 1 -9 -5 -23 -6 -30 -2 -7 5 -30 5 -51 1 -21 -4 -44 -4 -51 1 -7 4
-21 3 -30 -2 -11 -6 -20 -5 -24 1 -4 7 -12 7 -24 0 -10 -5 -21 -7 -23 -4 -8 8
-117 9 -124 1 -4 -3 -15 -2 -25 3 -11 7 -27 7 -43 0 -15 -5 -26 -6 -26 0 0 5
-12 5 -30 0 -17 -5 -30 -5 -30 0 0 5 -13 5 -29 0 -15 -4 -34 -4 -42 0 -7 5
-21 4 -30 -1 -11 -6 -20 -5 -24 1 -4 7 -12 7 -25 0 -12 -6 -21 -7 -25 0 -3 5
-15 6 -29 0 -12 -4 -29 -4 -36 0 -8 5 -22 4 -31 -1 -11 -6 -20 -5 -24 1 -4 7
-12 7 -24 0 -10 -5 -21 -7 -24 -4 -9 10 -42 12 -58 3 -8 -4 -21 -4 -29 1 -8 5
-21 5 -31 -1 -10 -5 -20 -5 -23 0 -3 4 -23 5 -45 1 -22 -4 -45 -4 -52 1 -7 4
-21 3 -30 -2 -11 -6 -20 -5 -24 1 -4 7 -12 7 -24 0 -10 -5 -21 -7 -23 -4 -8 7
-112 9 -124 2 -5 -4 -16 -3 -23 1 -7 5 -28 5 -47 1 -19 -4 -34 -4 -34 0 0 5
-13 5 -30 0 -16 -5 -30 -5 -30 -2 0 9 -64 7 -79 -2 -5 -4 -12 -2 -16 4 -4 6
-12 7 -24 1 -9 -5 -23 -6 -29 -2 -7 4 -35 4 -62 1 -28 -4 -50 -3 -50 1 0 4
-13 4 -30 -1 -17 -5 -30 -5 -30 -2 0 9 -64 7 -79 -2 -5 -4 -12 -2 -16 4 -4 6
-12 7 -24 1 -9 -5 -23 -6 -30 -2 -7 5 -30 5 -51 1 -21 -4 -44 -4 -51 1 -7 4
-21 3 -30 -2 -11 -6 -20 -5 -24 1 -4 7 -12 7 -24 0 -10 -5 -21 -7 -23 -4 -8 8
-117 9 -124 1 -4 -3 -15 -2 -25 3 -11 7 -27 7 -43 0 -15 -5 -26 -6 -26 0 0 5
-12 5 -30 0 -17 -5 -30 -5 -30 0 0 5 -13 5 -29 0 -15 -4 -34 -4 -42 0 -7 5
-21 4 -30 -1 -11 -6 -20 -5 -24 1 -4 7 -12 7 -25 0 -12 -6 -21 -7 -25 0 -3 5
-15 6 -29 0 -12 -4 -29 -4 -36 0 -8 5 -22 4 -31 -1 -11 -6 -20 -5 -24 1 -4 6
-13 7 -23 1 -11 -6 -24 -6 -34 0 -10 6 -26 5 -42 -1 -15 -5 -26 -6 -26 0 0 5
-12 5 -30 0 -17 -5 -30 -5 -30 -1 0 4 -12 7 -27 6 -21 0 -32 7 -43 30 -9 17
-41 73 -72 125 -30 52 -65 111 -76 130 -11 19 -61 106 -111 194 -50 87 -91
162 -91 167 0 5 -4 9 -9 9 -5 0 -11 8 -14 18 -4 9 -18 37 -33 62 -15 25 -38
65 -52 90 -13 25 -28 50 -32 55 -4 6 -19 30 -32 55 -14 25 -55 96 -92 159 -36
62 -66 116 -66 118 0 3 -8 17 -19 31 -10 15 -29 47 -43 72 -14 25 -36 63 -48
85 -13 22 -30 51 -37 65 -8 14 -25 43 -39 65 -13 22 -27 47 -31 55 -4 8 -27
49 -52 90 -24 41 -57 100 -74 130 -16 30 -35 62 -41 70 -6 8 -22 35 -36 60
-13 25 -28 48 -34 52 -6 4 -8 8 -3 8 4 0 -5 18 -19 40 l-27 40 -298 0 -298 0
-28 -47z"/>
</g>
</svg>
